<svg width="64" height="64" viewBox="0 0 64 64" xmlns="http://www.w3.org/2000/svg">
  <defs>
    <linearGradient id="grad" x1="0%" y1="0%" x2="100%" y2="100%">
      <stop offset="0%" style="stop-color:#00ff7f;stop-opacity:1" />
      <stop offset="100%" style="stop-color:#00b359;stop-opacity:1" />
    </linearGradient>
  </defs>

  <circle cx="32" cy="32" r="32" fill="url(#grad)" />

  <g fill="#121212" transform="translate(14, 14) scale(0.75)">
    <path d="M24 2.5a2.5 2.5 0 0 1 2.5 2.5v16.5h16.5a2.5 2.5 0 0 1 2.2 3.8l-18.7 18.7a2.5 2.5 0 0 1-4.3-1.8V5a2.5 2.5 0 0 1 1.8-2.5z"/>
    <path d="M2.5 24A2.5 2.5 0 0 1 5 21.5h16.5V5a2.5 2.5 0 0 1 3.8-2.2l18.7 18.7a2.5 2.5 0 0 1-1.8 4.3H25.7v16.5a2.5 2.5 0 0 1-4.3 1.8L2.7 25.3a2.5 2.5 0 0 1-.2-1.3z"/>
  </g>
</svg>